<svg width="64" height="52" fill="none" xmlns="http://www.w3.org/2000/svg"><path fill-rule="evenodd" clip-rule="evenodd" d="M31.452.173a2.705 2.705 0 011.937.013l28.465 11.138c2.283.893 2.324 4.13.064 5.08l-2.225.937v16.773l3.606 4.023a2.752 2.752 0 01-.072 3.748l-3.534 3.645v4.416A2.048 2.048 0 0157.653 52a2.048 2.048 0 01-2.042-2.054v-4.38l-3.723-3.626a2.752 2.752 0 01-.075-3.861l3.798-4V19.06l-4.355 1.831v13.99a3.014 3.014 0 01-1.746 2.74l-1.22.562a37.12 37.12 0 01-32.375-.606 2.945 2.945 0 01-1.607-2.627V21.503L1.71 16.42c-2.309-.931-2.269-4.235.062-5.11L31.452.174zM18.391 23.15v11.071a33.06 33.06 0 0028.197.225l.585-.27v-11.57l-13.72 5.773c-.66.277-1.4.283-2.063.015l-13-5.244zm39.218 14.771l-1.91 2.012 1.911 1.861 1.803-1.86-1.804-2.013zM32.393 4.205l-25.9 9.719 25.899 10.448L57.23 13.923 32.393 4.205z" fill="#0093C0"/></svg>