<svg width="57" height="48" fill="none" xmlns="http://www.w3.org/2000/svg"><path d="M1 12.5a5 5 0 015-5h45a5 5 0 015 5v7l-25.867 8.936a5 5 0 01-3.266 0L1 19.5v-7z" stroke="#0093C0" stroke-width="2"/><path d="M56 42a5 5 0 01-5 5H6a5 5 0 01-5-5V24.5L26.867 33c.962.297 2.304.297 3.266 0L56 24.5V42z" stroke="#0093C0" stroke-width="2"/><path clip-rule="evenodd" d="M24.5 6a.5.5 0 00-.5.5v1h-5v-1A5.5 5.5 0 0124.5 1h8A5.5 5.5 0 0138 6.5v1h-5v-1a.5.5 0 00-.5-.5h-8z" stroke="#0093C0" stroke-width="2"/></svg>