<svg width="57" height="48" viewBox="0 0 57 48" fill="none" xmlns="http://www.w3.org/2000/svg">
<path d="M1 12.5C1 9.73858 3.23858 7.5 6 7.5H51C53.7614 7.5 56 9.73858 56 12.5V19.5L30.1326 28.436C29.0749 28.8014 27.9251 28.8014 26.8674 28.436L1 19.5V12.5Z" stroke="#0093C0" stroke-width="2"/>
<path d="M56 42C56 44.7614 53.7614 47 51 47L6 47C3.23858 47 1 44.7614 1 42L1 24.5L26.8674 33C27.8293 33.2973 29.1707 33.2973 30.1326 33L56 24.5V42Z" stroke="#0093C0" stroke-width="2"/>
<path fill-rule="evenodd" clip-rule="evenodd" d="M24.5 6C24.2239 6 24 6.22386 24 6.5V7.5H19V6.5C19 3.46243 21.4624 1 24.5 1H32.5C35.5376 1 38 3.46243 38 6.5V7.5H33V6.5C33 6.22386 32.7761 6 32.5 6H24.5Z" stroke="#0093C0" stroke-width="2"/>
</svg>
