<svg width="64" height="52" viewBox="0 0 64 52" fill="none" xmlns="http://www.w3.org/2000/svg">
<path fill-rule="evenodd" clip-rule="evenodd" d="M31.452 0.172603C32.0775 -0.0621152 32.7669 -0.0572949 33.3891 0.186157L61.8545 11.3241C64.1374 12.2174 64.1778 15.4541 61.9179 16.4048L59.6934 17.3406V34.1135L63.2993 38.1371C64.2609 39.2101 64.2291 40.8503 63.2266 41.8847L59.6934 45.5304V49.9455C59.6934 51.0802 58.7795 52 57.6521 52C56.5247 52 55.6108 51.0802 55.6108 49.9455V45.5653L51.8877 41.9402C50.812 40.8927 50.7785 39.1676 51.8127 38.0786L55.6108 34.0793V19.0581L51.256 20.8901V34.8805C51.256 36.0584 50.574 37.1282 49.5102 37.6192L48.2896 38.1824C37.968 42.9455 26.0537 42.7223 15.9154 37.576C14.9299 37.0757 14.3083 36.0595 14.3083 34.9486V21.5034L1.70905 16.4201C-0.59969 15.4887 -0.559734 12.1853 1.7709 11.3107L31.452 0.172603ZM18.3909 23.1506V34.222C27.2799 38.4976 37.6104 38.5901 46.588 34.4473L47.1734 34.1771V22.6076L33.4522 28.3799C33.4522 28.3799 33.4522 28.3799 33.4522 28.3799C32.7933 28.657 32.0526 28.6625 31.3898 28.3951L18.3909 23.1506ZM57.6087 37.9223L55.6986 39.9336L57.6103 41.7951L59.4127 39.9353L57.6087 37.9223ZM32.3927 4.20495L6.49388 13.9237L32.3918 24.3724L57.2301 13.9233L32.3927 4.20495Z" fill="#0093C0"/>
</svg>
