<svg width="60" height="60" viewBox="0 0 60 60" fill="none" xmlns="http://www.w3.org/2000/svg">
<path d="M26.952 23.776H31.452V43H26.952V23.776ZM29.22 20.608C28.404 20.608 27.72 20.356 27.168 19.852C26.616 19.324 26.34 18.676 26.34 17.908C26.34 17.14 26.616 16.504 27.168 16C27.72 15.472 28.404 15.208 29.22 15.208C30.036 15.208 30.72 15.46 31.272 15.964C31.824 16.444 32.1 17.056 32.1 17.8C32.1 18.592 31.824 19.264 31.272 19.816C30.744 20.344 30.06 20.608 29.22 20.608Z" fill="#0093C0"/>
<circle cx="30" cy="30" r="28.5" stroke="#0093C0" stroke-width="3"/>
</svg>
