<svg width="24" height="24" viewBox="0 0 24 24" fill="none" xmlns="http://www.w3.org/2000/svg">
<g clip-path="url(#clip0_28_250)">
<path fill-rule="evenodd" clip-rule="evenodd" d="M21.3624 14.7575C21.3624 14.7575 23.3028 16.6739 23.7828 17.5607C23.7922 17.5735 23.7994 17.5877 23.8044 17.6027C24 17.9303 24.048 18.1871 23.952 18.3767C23.79 18.6899 23.2416 18.8471 23.0556 18.8603H19.626C19.3872 18.8603 18.8904 18.7979 18.2856 18.3803C17.8236 18.0575 17.364 17.5259 16.9188 17.0063C16.254 16.2347 15.6792 15.5651 15.0972 15.5651C15.0237 15.565 14.9507 15.5771 14.8812 15.6011C14.4408 15.7403 13.8816 16.3679 13.8816 18.0395C13.8816 18.5627 13.4688 18.8603 13.1796 18.8603H11.6088C11.0736 18.8603 8.28722 18.6731 5.81642 16.0679C2.78882 12.8783 0.0696165 6.47993 0.0432165 6.42353C-0.125984 6.00953 0.229217 5.78393 0.613217 5.78393H4.07642C4.54082 5.78393 4.69202 6.06473 4.79762 6.31673C4.92002 6.60593 5.37362 7.76273 6.11762 9.06233C7.32242 11.1767 8.06282 12.0371 8.65442 12.0371C8.76556 12.0375 8.87483 12.0085 8.97122 11.9531C9.74402 11.5283 9.60002 8.76833 9.56402 8.19953C9.56402 8.08913 9.56282 6.96713 9.16682 6.42473C8.88362 6.03593 8.40122 5.88473 8.10962 5.82953C8.18762 5.71673 8.35322 5.54393 8.56562 5.44193C9.09482 5.17793 10.0512 5.13953 11.0004 5.13953H11.5272C12.5568 5.15393 12.8232 5.21993 13.1976 5.31473C13.9512 5.49473 13.9656 5.98313 13.8996 7.64633C13.8804 8.12153 13.86 8.65673 13.86 9.28673C13.86 9.42113 13.854 9.57113 13.854 9.72353C13.8312 10.5767 13.8012 11.5379 14.4036 11.9327C14.4817 11.9814 14.572 12.0072 14.664 12.0071C14.8728 12.0071 15.498 12.0071 17.1936 9.09713C17.9376 7.81193 18.5136 6.29633 18.5532 6.18233C18.5868 6.11873 18.6876 5.93993 18.81 5.86793C18.8971 5.8216 18.9946 5.79846 19.0932 5.80073H23.1672C23.6112 5.80073 23.9124 5.86793 23.9712 6.03593C24.0696 6.30833 23.952 7.13993 22.092 9.65513C21.7788 10.0739 21.504 10.4363 21.2628 10.7531C19.5768 12.9659 19.5768 13.0775 21.3624 14.7575V14.7575Z" fill="white"/>
</g>
<defs>
<clipPath id="clip0_28_250">
<rect width="24" height="24" fill="white"/>
</clipPath>
</defs>
</svg>
