<svg width="22" height="16" viewBox="0 0 22 16" fill="none" xmlns="http://www.w3.org/2000/svg">
<path d="M21.0575 2.94502C20.938 2.50105 20.704 2.09626 20.3789 1.77115C20.0537 1.44604 19.649 1.21203 19.205 1.09252C17.57 0.650025 11 0.650024 11 0.650024C11 0.650024 4.42998 0.650025 2.79498 1.09252C2.35101 1.21203 1.94622 1.44604 1.62111 1.77115C1.296 2.09626 1.06199 2.50105 0.942484 2.94502C0.637194 4.61247 0.489044 6.30489 0.499984 8.00002C0.489044 9.69515 0.637194 11.3876 0.942484 13.055C1.06199 13.499 1.296 13.9038 1.62111 14.2289C1.94622 14.554 2.35101 14.788 2.79498 14.9075C4.42998 15.35 11 15.35 11 15.35C11 15.35 17.57 15.35 19.205 14.9075C19.649 14.788 20.0537 14.554 20.3789 14.2289C20.704 13.9038 20.938 13.499 21.0575 13.055C21.3628 11.3876 21.5109 9.69515 21.5 8.00002C21.5109 6.30489 21.3628 4.61247 21.0575 2.94502V2.94502ZM8.89998 11.15V4.85002L14.3525 8.00002L8.89998 11.15Z" fill="white"/>
</svg>
